<?xml version="1.0" encoding="UTF-8" standalone="no"?>
<svg
   height="16px"
   viewBox="0 0 16 16"
   width="16px"
   version="1.1"
   id="svg1316"
   sodipodi:docname="media-playback-start-rtl.svg"
   inkscape:version="1.2.2 (b0a8486541, 2022-12-01)"
   xmlns:inkscape="http://www.inkscape.org/namespaces/inkscape"
   xmlns:sodipodi="http://sodipodi.sourceforge.net/DTD/sodipodi-0.dtd"
   xmlns="http://www.w3.org/2000/svg"
   xmlns:svg="http://www.w3.org/2000/svg">
  <defs
     id="defs1320">
    <filter
       id="mask-powermask-path-effect202_inverse"
       inkscape:label="filtermask-powermask-path-effect202"
       style="color-interpolation-filters:sRGB"
       height="100"
       width="100"
       x="-50"
       y="-50">
      <feColorMatrix
         id="mask-powermask-path-effect202_primitive1"
         values="1"
         type="saturate"
         result="fbSourceGraphic" />
      <feColorMatrix
         id="mask-powermask-path-effect202_primitive2"
         values="-1 0 0 0 1 0 -1 0 0 1 0 0 -1 0 1 0 0 0 1 0 "
         in="fbSourceGraphic" />
    </filter>
  </defs>
  <sodipodi:namedview
     id="namedview1318"
     pagecolor="#ffffff"
     bordercolor="#000000"
     borderopacity="0.25"
     inkscape:showpageshadow="2"
     inkscape:pageopacity="0.0"
     inkscape:pagecheckerboard="0"
     inkscape:deskcolor="#d1d1d1"
     showgrid="false"
     inkscape:zoom="59"
     inkscape:cx="6.6355932"
     inkscape:cy="8.9491526"
     inkscape:window-width="1499"
     inkscape:window-height="1026"
     inkscape:window-x="0"
     inkscape:window-y="0"
     inkscape:window-maximized="1"
     inkscape:current-layer="svg1316" />
  <path
     id="path1322"
     style="fill:#DDD;fill-opacity:1"
     d="M 12.3125 2 C 12.101563 2 11.89453 2.0468746 11.710938 2.1484375 L 3.3125 6.9492188 C 2.9375004 7.1562495 2.75 7.5781254 2.75 8 C 2.75 8.4218749 2.9375004 8.8437505 3.3125 9.0507812 L 11.710938 13.851562 C 11.89453 13.95313 12.101563 14 12.3125 14 L 12.425781 14 C 12.425781 14 13.511719 13.999999 13.511719 13 L 13.511719 3 C 13.511719 2.000001 12.425781 2 12.425781 2 L 12.3125 2 z M 11.205078 4.6464844 L 11.265625 4.6464844 C 11.265625 4.6464844 11.84375 4.6471202 11.84375 5.1796875 L 11.84375 10.503906 C 11.84375 11.036474 11.265625 11.037109 11.265625 11.037109 L 11.205078 11.037109 C 11.09274 11.037109 10.982542 11.011121 10.884766 10.957031 L 6.4121094 8.4003906 C 6.2123965 8.2901327 6.1132813 8.0664737 6.1132812 7.8417969 C 6.1132812 7.6171201 6.212397 7.3915079 6.4121094 7.28125 L 10.884766 4.7246094 C 10.982546 4.6705204 11.09274 4.6464844 11.205078 4.6464844 z " />
</svg>
