<?xml version="1.0" encoding="UTF-8" standalone="no"?>
<svg
   height="16px"
   viewBox="0 0 16 16"
   width="16px"
   version="1.1"
   id="svg258"
   sodipodi:docname="wrap-lines.svg"
   inkscape:version="1.2.2 (b0a8486541, 2022-12-01)"
   xmlns:inkscape="http://www.inkscape.org/namespaces/inkscape"
   xmlns:sodipodi="http://sodipodi.sourceforge.net/DTD/sodipodi-0.dtd"
   xmlns="http://www.w3.org/2000/svg"
   xmlns:svg="http://www.w3.org/2000/svg">
  <defs
     id="defs262" />
  <sodipodi:namedview
     id="namedview260"
     pagecolor="#ffffff"
     bordercolor="#000000"
     borderopacity="0.25"
     inkscape:showpageshadow="2"
     inkscape:pageopacity="0.0"
     inkscape:pagecheckerboard="0"
     inkscape:deskcolor="#d1d1d1"
     showgrid="false"
     inkscape:zoom="14.75"
     inkscape:cx="8.0338983"
     inkscape:cy="8"
     inkscape:window-width="1499"
     inkscape:window-height="1026"
     inkscape:window-x="0"
     inkscape:window-y="0"
     inkscape:window-maximized="1"
     inkscape:current-layer="svg258" />
  <path
     d="M 5,14 C 4.734375,14 4.480469,13.894531 4.292969,13.707031 l -4,-4 c -0.3906252,-0.390625 -0.3906252,-1.023437 0,-1.414062 l 4,-4 c 0.390625,-0.390625 1.023437,-0.390625 1.414062,0 0.390625,0.390625 0.390625,1.023437 0,1.414062 L 3.414062,8 H 12 c 1.117188,0 2,-0.882812 2,-2 V 3 c 0,-0.550781 0.449219,-1 1,-1 0.550781,0 1,0.449219 1,1 v 3 c 0,0.023438 0,0.046875 -0.0039,0.070312 C 15.960938,8.234375 14.175781,10 12,10 H 3.414062 l 2.292969,2.292969 c 0.390625,0.390625 0.390625,1.023437 0,1.414062 C 5.519531,13.894531 5.265625,14 5,14 Z m 0,0"
     fill="#DDD"
     id="path256" />
</svg>
