<?xml version="1.0" encoding="UTF-8" standalone="no"?>
<svg
   height="16px"
   viewBox="0 0 16 16"
   width="16px"
   version="1.1"
   id="svg8"
   sodipodi:docname="hamburger-menu.svg"
   inkscape:version="1.2.2 (b0a8486541, 2022-12-01)"
   xmlns:inkscape="http://www.inkscape.org/namespaces/inkscape"
   xmlns:sodipodi="http://sodipodi.sourceforge.net/DTD/sodipodi-0.dtd"
   xmlns="http://www.w3.org/2000/svg"
   xmlns:svg="http://www.w3.org/2000/svg">
  <defs
     id="defs12" />
  <sodipodi:namedview
     id="namedview10"
     pagecolor="#ffffff"
     bordercolor="#000000"
     borderopacity="0.25"
     inkscape:showpageshadow="2"
     inkscape:pageopacity="0.0"
     inkscape:pagecheckerboard="0"
     inkscape:deskcolor="#d1d1d1"
     showgrid="false"
     inkscape:zoom="29.5"
     inkscape:cx="7.8813559"
     inkscape:cy="8.8813559"
     inkscape:window-width="1499"
     inkscape:window-height="1026"
     inkscape:window-x="0"
     inkscape:window-y="0"
     inkscape:window-maximized="1"
     inkscape:current-layer="svg8" />
  <path
     d="M 15,2.4 V 3.6 C 15,3.8203123 14.550781,4 14,4 H 2 C 1.449219,4 1,3.8203123 1,3.6 V 2.4 C 1,2.1796876 1.449219,2 2,2 h 12 c 0.550781,0 1,0.1796876 1,0.4 z m 0,0"
     id="path2"
     style="fill:#2e3436;stroke-width:0.632456" />
  <path
     d="M 15.005753,7.3999999 V 8.5999995 C 15.005753,8.8203117 14.556534,9 14.005753,9 H 2.0057528 c -0.550781,0 -1,-0.1796876 -1,-0.4000005 V 7.3999999 C 1.0057528,7.1796876 1.4549718,7 2.0057528,7 H 14.005753 c 0.550781,0 1,0.1796876 1,0.3999999 z m 0,0"
     id="path2-3"
     style="fill:#2e3436;stroke-width:0.632456" />
  <path
     d="M 15,12.400001 V 13.6 C 15,13.820313 14.550781,14 14,14 H 2 C 1.449219,14 1,13.820313 1,13.6 V 12.400001 C 1,12.179687 1.449219,12 2,12 h 12 c 0.550781,0 1,0.179687 1,0.400001 z m 0,0"
     id="path2-6"
     style="fill:#2e3436;stroke-width:0.632456" />
</svg>
