<?xml version="1.0" encoding="UTF-8"?>
<svg id="Layer_1" xmlns="http://www.w3.org/2000/svg" version="1.1" viewBox="0 0 16 16">
  <!-- Generator: Adobe Illustrator 29.7.1, SVG Export Plug-In . SVG Version: 2.1.1 Build 8)  -->
  <defs>
    <style>
      .st0 {
        fill: #2e3436;
      }
    </style>
  </defs>
  <path class="st0" d="M15,13V3c0-1-1.1-1-1.1-1h-.1c-.2,0-.4,0-.6.1L4.8,6.9c-.4.2-.6.6-.6,1.1s.2.8.6,1.1l8.4,4.8c.2.1.4.1.6.1h.1s1.1,0,1.1-1Z"/>
  <path class="st0" d="M1.5,14h1c.3,0,.5-.2.5-.5V2.5c0-.3-.2-.5-.5-.5h-1c-.3,0-.5.2-.5.5v11c0,.3.2.5.5.5Z"/>
</svg>