<?xml version="1.0" encoding="UTF-8" standalone="no"?>
<svg
   height="16px"
   viewBox="0 0 16 16"
   width="16px"
   version="1.1"
   id="svg1316"
   sodipodi:docname="media-playback-start-rtl.svg"
   inkscape:version="1.2.2 (b0a8486541, 2022-12-01)"
   xmlns:inkscape="http://www.inkscape.org/namespaces/inkscape"
   xmlns:sodipodi="http://sodipodi.sourceforge.net/DTD/sodipodi-0.dtd"
   xmlns="http://www.w3.org/2000/svg"
   xmlns:svg="http://www.w3.org/2000/svg">
  <defs
     id="defs1320">
    <filter
       id="mask-powermask-path-effect202_inverse"
       inkscape:label="filtermask-powermask-path-effect202"
       style="color-interpolation-filters:sRGB"
       height="100"
       width="100"
       x="-50"
       y="-50">
      <feColorMatrix
         id="mask-powermask-path-effect202_primitive1"
         values="1"
         type="saturate"
         result="fbSourceGraphic" />
      <feColorMatrix
         id="mask-powermask-path-effect202_primitive2"
         values="-1 0 0 0 1 0 -1 0 0 1 0 0 -1 0 1 0 0 0 1 0 "
         in="fbSourceGraphic" />
    </filter>
  </defs>
  <sodipodi:namedview
     id="namedview1318"
     pagecolor="#ffffff"
     bordercolor="#000000"
     borderopacity="0.25"
     inkscape:showpageshadow="2"
     inkscape:pageopacity="0.0"
     inkscape:pagecheckerboard="0"
     inkscape:deskcolor="#d1d1d1"
     showgrid="false"
     inkscape:zoom="59"
     inkscape:cx="6.6355932"
     inkscape:cy="8.9491526"
     inkscape:window-width="1499"
     inkscape:window-height="1026"
     inkscape:window-x="0"
     inkscape:window-y="0"
     inkscape:window-maximized="1"
     inkscape:current-layer="svg1316" />
  <path
     d="m 13.511719,3 v 10 c 0,1 -1.085938,1 -1.085938,1 H 12.3125 c -0.210937,0 -0.417969,-0.04687 -0.601562,-0.148438 L 3.3125,9.0507813 C 2.9375,8.8437503 2.75,8.4218753 2.75,8 2.75,7.578125 2.9375,7.15625 3.3125,6.949219 L 11.710938,2.148438 C 11.894531,2.046875 12.101563,2 12.3125,2 h 0.113281 c 0,0 1.085938,0 1.085938,1 z m 0,0"
     id="path1322"
     style="fill:#2e3436" />
  <path
     d="m 11.8443,5.1787235 v 5.3256815 c 0,0.532568 -0.578336,0.532568 -0.578336,0.532568 h -0.06033 c -0.112338,0 -0.222597,-0.02496 -0.320373,-0.07905 L 6.4125214,8.401177 C 6.2128083,8.290919 6.1129518,8.066241 6.1129518,7.841564 c 0,-0.224677 0.099857,-0.449354 0.2995696,-0.559612 L 10.885261,4.7252087 c 0.09778,-0.054089 0.208035,-0.079053 0.320373,-0.079053 h 0.06033 c 0,0 0.578336,0 0.578336,0.5325678 z m 0,0"
     id="path1322-3"
     style="fill:#ffffff;stroke-width:0.532568" />
</svg>
